<svg xmlns="http://www.w3.org/2000/svg" viewBox="0 0 100 100">
  <circle cx="50" cy="50" r="50" fill="#1a0d14"/>
  <!-- 髪（姫・高島田風） -->
  <ellipse cx="50" cy="30" rx="22" ry="18" fill="#1a0a08"/>
  <rect x="28" y="28" width="44" height="8" rx="0" fill="#1a0a08"/>
  <!-- 髪飾り -->
  <circle cx="50" cy="17" r="5" fill="#c8962a"/>
  <circle cx="50" cy="17" r="3" fill="#e5b84a"/>
  <!-- 顔（細面） -->
  <ellipse cx="50" cy="54" rx="17" ry="20" fill="#f0d0b0"/>
  <!-- 目（切れ長） -->
  <path d="M38 50 Q43 47 48 50" stroke="#1a0808" stroke-width="2" fill="none" stroke-linecap="round"/>
  <path d="M52 50 Q57 47 62 50" stroke="#1a0808" stroke-width="2" fill="none" stroke-linecap="round"/>
  <!-- 眉（細い弓形） -->
  <path d="M39 45 Q43 43 47 45" stroke="#2a1818" stroke-width="1.5" fill="none"/>
  <path d="M53 45 Q57 43 61 45" stroke="#2a1818" stroke-width="1.5" fill="none"/>
  <!-- 口（小さい） -->
  <ellipse cx="50" cy="63" rx="4" ry="2.5" fill="#c86880"/>
  <!-- 着物 -->
  <path d="M33 74 Q50 82 67 74 L68 100 H32 Z" fill="#8a2040"/>
  <path d="M40 74 L44 100 H56 L60 74" fill="#c84060" opacity="0.5"/>
  <!-- 帯 -->
  <rect x="32" y="72" width="36" height="5" rx="2" fill="#c8962a"/>
</svg>
