<svg xmlns="http://www.w3.org/2000/svg" viewBox="0 0 100 100">
  <circle cx="50" cy="50" r="50" fill="#0d1a0d"/>
  <!-- 頭巾（忍者） -->
  <ellipse cx="50" cy="35" rx="24" ry="22" fill="#1a1a1a"/>
  <rect x="26" y="35" width="48" height="12" fill="#1a1a1a"/>
  <!-- 目だけ見える -->
  <rect x="26" y="46" width="48" height="14" rx="2" fill="#1a1a1a"/>
  <ellipse cx="42" cy="53" rx="5" ry="4" fill="#e8e8e8"/>
  <ellipse cx="58" cy="53" rx="5" ry="4" fill="#e8e8e8"/>
  <ellipse cx="42" cy="53" rx="3" ry="3" fill="#2a5a2a"/>
  <ellipse cx="58" cy="53" rx="3" ry="3" fill="#2a5a2a"/>
  <ellipse cx="43" cy="52" rx="1" ry="1" fill="#0a0a0a"/>
  <ellipse cx="59" cy="52" rx="1" ry="1" fill="#0a0a0a"/>
  <!-- 装束 -->
  <path d="M26 72 Q50 78 74 72 L74 100 H26 Z" fill="#1a1a1a"/>
  <!-- 手裏剣アクセント -->
  <polygon points="50,62 52,66 56,66 53,69 54,73 50,71 46,73 47,69 44,66 48,66" fill="#4aad5a" opacity="0.7"/>
</svg>
